<svg aria-hidden="true" style="position: absolute; width: 0; height: 0; overflow: hidden;" version="1.1" xmlns="http://www.w3.org/2000/svg" xmlns:xlink="http://www.w3.org/1999/xlink">
<defs>
<symbol id="icon-form-icon-email" viewBox="0 0 43 32">
<path d="M37.333 0h-32c-2.2 0-3.981 1.8-3.981 4l-0.019 24c0 2.2 1.8 4 4 4h32c2.2 0 4-1.8 4-4v-24c0-2.2-1.8-4-4-4zM36.533 8.501l-14.139 8.837c-0.302 0.188-0.668 0.3-1.060 0.3s-0.758-0.112-1.069-0.305l0.009 0.005-14.141-8.84c-0.503-0.301-0.835-0.843-0.835-1.463 0-0.938 0.761-1.699 1.699-1.699 0.349 0 0.673 0.105 0.943 0.285l-0.006-0.004 13.4 8.381 13.4-8.381c0.264-0.176 0.588-0.282 0.937-0.282 0.938 0 1.699 0.761 1.699 1.699 0 0.62-0.332 1.162-0.828 1.459l-0.008 0.004z"></path>
</symbol>


<symbol id="icon-vector-tel" viewBox="0 0 30 32">
<path d="M24.802 14.931l-3.096-0.354c-0.085-0.011-0.183-0.017-0.282-0.017-0.671 0-1.278 0.272-1.717 0.712l-2.242 2.242c-3.477-1.793-6.24-4.556-7.986-7.93l-0.048-0.102 2.257-2.255c0.439-0.439 0.71-1.045 0.71-1.715 0-0.1-0.006-0.198-0.018-0.294l0.001 0.012-0.354-3.072c-0.146-1.22-1.175-2.157-2.422-2.157-0.001 0-0.002 0-0.003 0h-2.108c-1.378 0-2.523 1.145-2.437 2.523 0.645 10.408 8.97 18.722 19.367 19.368 1.378 0.084 2.523-1.061 2.523-2.439v-2.109c0-0.004 0-0.009 0-0.013 0-1.239-0.933-2.26-2.134-2.399l-0.011-0.001z"></path>
</symbol>

<symbol id="icon-telegram" viewBox="0 0 32 32">
<path fill="#fff" style="fill: var(--color1, #fff)" d="M32 2.667l-32 15 10.227 3.156 15.773-12.323-11.998 13.488 0.010 0.003-0.012-0.003v7.345l5.735-5.576 7.265 2.242 5-23.333z"></path>
</symbol>

<symbol id="icon-form-icon-name" viewBox="0 0 38 32">
<path d="M19.2 12.8c3.535 0 6.4-2.865 6.4-6.4s-2.865-6.4-6.4-6.4v0c-3.535 0-6.4 2.865-6.4 6.4s2.865 6.4 6.4 6.4v0zM19.2 16c-4.273 0-12.8 2.144-12.8 6.4v1.6c0 0.879 0.719 1.6 1.6 1.6h22.4c0.879 0 1.6-0.721 1.6-1.6v-1.6c0-4.256-8.529-6.4-12.8-6.4z"></path>
</symbol>

<symbol id="icon-vector-modal" viewBox="0 0 32 32">
<path d="M32 3.224l-3.224-3.224-12.776 12.776-12.776-12.776-3.224 3.224 12.776 12.776-12.776 12.776 3.224 3.224 12.776-12.776 12.776 12.776 3.224-3.224-12.776-12.776 12.776-12.776z"></path>
</symbol>

<symbol id="icon-form-click" viewBox="0 0 40 32">
<path fill="#f4f4fd" style="fill: var(--color1, #f4f4fd)" d="M33.784 1.020c0.659-0.637 1.558-1.030 2.548-1.030 2.007 0 3.637 1.611 3.668 3.611l0 0.003c0.001 0.028 0.001 0.061 0.001 0.095 0 0.965-0.368 1.844-0.972 2.504l0.003-0.003-19.576 24.616c-0.674 0.728-1.635 1.182-2.702 1.182-0.495 0-0.967-0.098-1.398-0.275l0.024 0.009c-0.477-0.197-0.884-0.473-1.224-0.816l-0-0-12.984-13.052c-0.724-0.677-1.175-1.638-1.175-2.705 0-0.501 0.1-0.98 0.28-1.416l-0.009 0.025c0.564-1.367 1.887-2.312 3.43-2.312 0.018 0 0.035 0 0.053 0l-0.003-0c1.038 0.019 1.967 0.467 2.622 1.174l0.002 0.002 10.276 10.328 17.040-21.832c0.032-0.039 0.065-0.074 0.1-0.108l-0.004-0z"></path>
</symbol>

</defs>
</svg>
